<svg xmlns="http://www.w3.org/2000/svg" viewBox="0 0 418 395" width="70" height="70" id="logo"><path d="M102.8 280C65.3 282.6 3.4 263.8.1 208.4c-1.7-28.7 11.8-50.9 30.2-63.3 32.8-22 76.5-8.4 78 36-21.7-37.5-64-20.8-66.6 14.3-2.9 40.2 34.3 49.3 54.6 51 89.1 7.5 137.4-7.1 226-75.2l4.8 6.9c-34.2 31.1-59.2 63.9-116.8 83.4-60.7 20.7-80.8 16.7-107.5 18.5z"></path><path d="M332.3 367.4L206.6.4h-14.4l-120.7 352-4.5 13.2c-11.9 2.8-23.8 7.2-35.6 13.3V395h109.9v-16.1c-14.4-6.6-28.2-11.1-42.6-13.3l2.1-6.7 30.5-94.8 9.9-28.8L179.4 119l12.4-34.3 10.4 33.2 39.1 117.5 8.4 28.8L284 367.6c-10.9 2.5-21.6 6.3-32.6 11.4v16h109.9v-16.1c-9.7-4.9-19.3-8.8-29-11.5zm-9.6-191l-12.2-14.2-4.8 9.1s1.3 4.3 7.3 12.4c6.1 8.2 9.8 10.6 9.8 10.6l10.3-2.5-10.4-15.4z"></path><path d="M336.3 139.8l-9.2-5.6-46.6 23.8 30 4.3zm25.3 34.1l2.7 10.4-38.7 28.4 7-20.6z"></path><path fill-rule="evenodd" d="M333 192.5l-11.3-15.1-11.3-15.1s16.5-16.2 39.3-32.8c41.6-30.1 68.4-23.8 68.4-23.8s-1.6 27.5-42.5 58.6c-22.3 17.2-42.6 28.2-42.6 28.2zm46.7-46.3c4.2-3.1 5.1-9.1 2-13.4-3.2-4.2-9.1-5.1-13.4-2-4.2 3.1-5.1 9.1-2 13.4 3.2 4.3 9.2 5.2 13.4 2z" clip-rule="evenodd"></path></svg>
