<svg width="37" height="37" viewBox="0 0 37 37" fill="none" xmlns="http://www.w3.org/2000/svg">
<path d="M13.25 36H23.75C32.5 36 36 32.5 36 23.75V13.25C36 4.5 32.5 1 23.75 1H13.25C4.5 1 1 4.5 1 13.25V23.75C1 32.5 4.5 36 13.25 36Z" stroke="#BB2028" stroke-width="1.5" stroke-linecap="round" stroke-linejoin="round"/>
<path d="M13.25 15C15.183 15 16.75 13.433 16.75 11.5C16.75 9.567 15.183 8 13.25 8C11.317 8 9.75 9.567 9.75 11.5C9.75 13.433 11.317 15 13.25 15Z" stroke="#BB2028" stroke-width="1.5" stroke-linecap="round" stroke-linejoin="round"/>
<path d="M2.17236 30.6625L10.7999 24.87C12.1824 23.9425 14.1774 24.0475 15.4199 25.115L15.9974 25.6225C17.3624 26.795 19.5674 26.795 20.9324 25.6225L28.2124 19.375C29.5774 18.2025 31.7824 18.2025 33.1474 19.375L35.9999 21.825" stroke="#BB2028" stroke-width="1.5" stroke-linecap="round" stroke-linejoin="round"/>
</svg>
