<?xml version="1.0" standalone="no"?>
<!DOCTYPE svg PUBLIC "-//W3C//DTD SVG 20010904//EN"
 "http://www.w3.org/TR/2001/REC-SVG-20010904/DTD/svg10.dtd">
<svg version="1.0" xmlns="http://www.w3.org/2000/svg"
 width="261pt" height="126pt" viewBox="0 0 2048 995"
 preserveAspectRatio="xMidYMid meet">
<g transform="translate(0,918.5) scale(0.1,-0.1)"
fill="#000000" stroke="none">
<rect fill="#ffffff" x="0" y="-765" width="20480" height="9950" rx="1480" ry="1480"/>
<path fill="
#cabaa0" d="M2670 7939 c-464 -47 -645 -247 -836 -927 -34 -121 -687 -1898 -724
-1972 -10 -19 -23 -55 -30 -80 -25 -86 -293 -806 -341 -913 -114 -255 -266
-455 -427 -559 -48 -32 -62 -46 -60 -62 l3 -21 1040 0 c1103 1 1089 0 1132 48
60 67 162 309 438 1042 158 418 302 798 320 845 18 47 91 238 161 425 121 322
131 345 196 437 150 212 324 396 442 467 81 49 219 98 323 116 100 17 341 34
483 35 l95 1 42 37 c92 82 134 155 243 427 82 205 106 254 165 345 81 126 167
194 328 259 21 8 28 17 25 34 l-3 22 -1465 1 c-806 1 -1503 -2 -1550 -7z"/>
<path fill="
#c3a873" d="M6210 6505 c-1736 -15 -1823 -17 -1905 -40 -307 -86 -520 -378 -738
-1010 -31 -88 -339 -933 -686 -1878 -347 -946 -631 -1725 -631 -1732 0 -43
-155 -412 -216 -515 -92 -155 -189 -235 -354 -294 -74 -26 -95 -38 -95 -52 0
-18 56 -19 1895 -19 1794 0 1901 1 2004 18 209 35 336 90 443 190 106 100 182
251 276 557 142 457 724 2250 830 2555 273 788 388 1085 541 1400 190 389 349
560 689 740 169 89 168 90 -228 91 -182 1 -1003 -5 -1825 -11z"/>
<path d="M8710 5411 c-5 -11 -10 -29 -10 -40 0 -19 -6 -21 -65 -21 -121 0
-223 -59 -271 -156 -23 -48 -26 -63 -22 -127 5 -82 22 -121 74 -171 55 -54
113 -77 204 -83 l80 -6 0 -31 c0 -46 16 -56 90 -56 74 0 90 10 90 56 l0 31 79
6 c93 6 153 30 206 82 53 54 75 107 75 186 0 157 -123 269 -295 269 -64 0 -65
0 -65 28 0 42 -17 52 -92 52 -56 0 -69 -3 -78 -19z m-12 -328 l-3 -108 -58 2
c-71 3 -95 15 -113 59 -18 43 -10 95 19 122 26 24 46 29 110 31 l48 1 -3 -107z
m341 73 c21 -22 26 -36 26 -77 0 -43 -4 -54 -28 -75 -23 -20 -39 -24 -93 -24
l-64 0 0 106 0 107 66 -6 c54 -4 71 -10 93 -31z"/>
<path d="M9609 5417 c-104 -30 -191 -105 -237 -206 -22 -46 -26 -71 -26 -141
0 -116 33 -189 118 -266 196 -178 521 -92 597 158 70 229 -91 455 -331 465
-41 1 -96 -3 -121 -10z m207 -182 c60 -35 88 -95 82 -179 -7 -113 -78 -180
-188 -179 -63 1 -102 17 -142 60 -35 37 -48 73 -48 134 0 77 47 153 110 178
14 5 52 10 84 10 46 1 69 -5 102 -24z"/>
<path d="M10212 5408 c-9 -9 -12 -98 -12 -338 0 -240 3 -329 12 -338 16 -16
140 -16 156 0 8 8 12 54 12 140 l0 128 135 0 135 0 0 -127 c0 -71 4 -134 9
-141 5 -9 29 -12 82 -10 l74 3 0 345 0 345 -60 3 c-109 6 -105 10 -105 -128
l0 -120 -119 0 c-66 0 -126 -3 -135 -6 -14 -5 -16 8 -16 113 0 79 -4 123 -12
131 -7 7 -40 12 -78 12 -38 0 -71 -5 -78 -12z"/>
<path d="M11106 5412 c-2 -4 -19 -113 -35 -242 -40 -298 -35 -280 -70 -280
-61 0 -61 1 -61 -155 0 -162 -4 -155 84 -155 58 0 76 12 76 51 0 14 3 41 6 58
l7 31 208 0 209 0 0 -54 c0 -72 15 -86 89 -86 31 0 62 5 69 12 14 14 17 255 3
276 -4 7 -21 14 -37 16 l-29 3 -5 264 -5 264 -252 3 c-138 1 -254 -1 -257 -6z
m344 -342 l0 -180 -121 0 -121 0 6 33 c3 17 12 88 21 157 23 189 10 170 120
170 l95 0 0 -180z"/>
<path d="M10783 3950 c-105 -15 -225 -75 -230 -115 -2 -11 14 -40 36 -65 l39
-45 59 29 c45 22 76 29 138 33 93 5 130 -8 130 -47 0 -25 0 -25 -120 -30
l-120 -5 0 -75 0 -75 121 -5 c136 -6 154 -13 154 -66 0 -59 -46 -84 -154 -84
-68 0 -122 16 -173 51 -23 16 -48 29 -55 29 -20 0 -90 -87 -86 -107 5 -29 99
-92 168 -114 80 -25 207 -27 283 -5 132 38 210 146 192 265 -5 34 -16 55 -44
82 l-37 37 23 33 c28 40 31 114 7 164 -40 85 -186 135 -331 115z"/>
<path d="M15332 3950 c-183 -27 -315 -194 -299 -381 18 -218 203 -361 422
-327 103 15 203 80 245 158 10 18 7 25 -25 54 -19 18 -47 39 -60 46 -24 13
-28 11 -59 -23 -65 -72 -161 -95 -241 -58 -36 16 -94 71 -95 89 -1 4 -5 27 -9
51 -19 95 36 195 118 220 83 24 159 3 221 -63 19 -20 39 -36 44 -36 20 0 106
75 106 94 0 54 -134 156 -225 171 -76 12 -90 13 -143 5z"/>
<path d="M8376 3934 c-14 -13 -16 -59 -16 -344 0 -326 0 -329 21 -341 29 -15
138 -7 150 12 5 8 9 128 9 267 l0 252 130 0 130 0 0 -260 c0 -255 0 -259 21
-271 29 -15 138 -7 150 12 5 8 9 159 9 336 0 279 -2 324 -16 337 -13 14 -54
16 -294 16 -240 0 -281 -2 -294 -16z"/>
<path d="M9143 3944 c-10 -4 -13 -84 -13 -349 l0 -343 23 -6 c35 -9 106 -7
128 4 16 9 19 22 19 89 l0 79 118 4 c105 3 125 7 176 32 197 96 189 376 -14
469 -39 18 -68 21 -235 23 -104 2 -196 1 -202 -2z m370 -176 c34 -17 46 -39
47 -80 0 -80 -29 -98 -165 -98 l-95 0 0 95 0 95 96 0 c53 0 105 -5 117 -12z"/>
<path d="M9876 3934 c-14 -13 -16 -58 -16 -337 0 -185 4 -328 10 -337 8 -13
52 -15 273 -18 308 -3 297 -6 297 87 0 31 -5 62 -12 69 -8 8 -67 12 -200 12
l-188 0 0 55 0 55 158 0 c110 0 162 4 170 12 7 7 12 40 12 79 0 52 -4 68 -16
73 -9 3 -85 6 -170 6 l-154 0 0 45 0 45 183 0 c129 0 187 4 195 12 18 18 15
123 -4 142 -13 14 -52 16 -269 16 -217 0 -256 -2 -269 -16z"/>
<path d="M11308 3939 c-17 -9 -18 -36 -18 -344 0 -383 -7 -355 95 -355 51 0
60 3 89 33 33 35 113 143 226 309 l70 101 0 -209 c0 -150 3 -213 12 -222 15
-15 112 -16 139 -2 18 10 19 25 19 343 0 246 -3 336 -12 345 -13 13 -114 17
-143 6 -17 -7 -154 -187 -266 -347 l-54 -79 -3 208 c-2 151 -6 210 -15 216
-17 11 -119 9 -139 -3z"/>
<path d="M12228 3936 c-9 -9 -26 -103 -46 -261 -18 -137 -35 -252 -38 -257 -3
-4 -22 -8 -44 -8 -25 0 -40 -5 -44 -16 -8 -20 -8 -248 0 -268 5 -12 21 -16 75
-16 79 0 89 9 89 84 l0 46 209 0 208 0 9 -62 9 -63 75 0 75 0 0 145 0 145 -32
3 -33 3 0 258 c0 186 -3 260 -12 269 -19 19 -482 17 -500 -2z m333 -171 c1 -8
1 -26 1 -40 0 -14 0 -90 -1 -170 l-1 -145 -115 0 -115 0 0 27 c0 14 10 98 21
185 l22 158 93 0 c76 0 94 -3 95 -15z"/>
<path d="M12936 3934 c-14 -13 -15 -58 -13 -344 1 -180 6 -332 10 -337 13 -12
508 -16 540 -4 25 10 27 14 27 74 0 36 -5 68 -12 75 -8 8 -67 12 -200 12
l-188 0 0 55 0 55 154 0 c85 0 161 3 170 6 23 9 23 149 0 158 -9 3 -85 6 -170
6 l-154 0 0 45 0 45 183 0 c129 0 187 4 195 12 7 7 12 39 12 75 0 51 -3 64
-19 73 -12 6 -116 10 -270 10 -212 0 -252 -2 -265 -16z"/>
<path d="M13652 3941 c-19 -11 -18 -681 0 -693 19 -11 116 -10 139 2 17 10 19
22 19 140 l0 130 135 0 135 0 0 -130 c0 -122 1 -130 21 -141 29 -15 138 -7
150 12 5 8 9 159 9 336 0 371 5 353 -90 353 -86 0 -90 -7 -90 -146 l0 -114
-135 0 -135 0 0 120 c0 108 -2 120 -19 130 -23 12 -120 13 -139 1z"/>
<path d="M14372 3941 c-9 -5 -12 -29 -10 -82 l3 -74 113 -3 112 -3 0 -259 c0
-294 -4 -280 85 -280 89 0 85 -14 85 280 l0 259 113 3 112 3 3 74 c2 53 -1 77
-10 82 -7 5 -143 9 -303 9 -159 0 -296 -4 -303 -9z"/>
<path d="M15836 3934 c-14 -13 -16 -58 -16 -337 0 -180 4 -328 10 -337 11 -17
123 -24 151 -9 17 9 19 23 19 124 0 110 1 114 26 134 l26 20 74 -91 c41 -50
88 -110 106 -134 39 -51 70 -64 154 -64 74 0 94 6 94 30 0 9 -69 95 -152 190
l-153 173 150 144 c144 138 149 144 130 159 -15 12 -40 15 -107 12 l-88 -3
-130 -130 -130 -130 0 122 c0 111 -2 123 -19 133 -31 16 -127 13 -145 -6z"/>
<path d="M16602 3941 c-10 -6 -13 -79 -12 -346 0 -186 2 -341 5 -343 8 -9 95
-14 127 -8 29 5 46 23 119 124 47 64 114 159 149 210 35 50 66 92 70 92 3 0 4
-91 2 -201 -2 -118 1 -206 6 -211 15 -15 117 -21 141 -9 21 12 21 15 21 350 0
300 -2 340 -16 345 -21 8 -114 6 -136 -2 -17 -7 -159 -192 -257 -335 -30 -43
-57 -79 -61 -82 -3 -2 -4 85 -2 194 5 232 6 231 -86 231 -31 0 -63 -4 -70 -9z"/>
<path d="M17379 3934 c-16 -20 -17 -18 117 -189 57 -73 104 -136 104 -139 0
-3 -56 -78 -125 -166 -69 -89 -125 -165 -125 -170 0 -26 114 -41 178 -24 15 4
51 48 103 125 45 66 82 119 84 119 2 0 37 -46 77 -102 105 -150 103 -148 191
-148 84 0 116 15 99 46 -5 10 -62 87 -126 169 -64 83 -114 156 -111 163 2 7
54 75 115 151 60 77 110 146 110 154 0 21 -22 27 -106 27 -86 0 -80 4 -174
-128 -36 -50 -67 -91 -70 -91 -3 0 -34 41 -70 91 -94 133 -87 128 -179 128
-59 0 -82 -4 -92 -16z"/>
<path d="M12193 2461 c-77 -29 -141 -79 -184 -144 -120 -184 -52 -425 147
-519 194 -91 432 -1 504 190 28 74 27 192 -2 269 -27 73 -106 154 -185 190
-78 36 -204 42 -280 14z m217 -166 c119 -62 133 -248 25 -331 -30 -22 -50 -29
-101 -32 -84 -6 -144 22 -179 82 -47 81 -26 218 40 262 67 44 152 52 215 19z"/>
<path d="M8366 2454 c-3 -8 -6 -161 -6 -338 0 -237 3 -325 12 -334 7 -7 40
-12 80 -12 56 0 69 3 78 19 6 12 10 115 10 265 l0 246 168 0 c120 0 173 4 186
13 14 10 16 25 14 82 l-3 70 -266 3 c-237 2 -267 1 -273 -14z"/>
<path d="M9035 2458 c-3 -7 -4 -164 -3 -348 l3 -335 80 0 80 0 3 87 3 86 127
4 c106 3 134 7 167 25 154 82 193 273 82 399 -73 83 -92 89 -330 92 -165 3
-208 1 -212 -10z m406 -184 c16 -18 24 -37 24 -64 0 -27 -8 -46 -24 -64 -23
-25 -30 -26 -133 -26 l-108 0 0 90 0 90 108 0 c103 0 110 -1 133 -26z"/>
<path d="M9935 2408 c-16 -35 -84 -186 -152 -337 -68 -151 -122 -280 -119
-288 4 -11 25 -13 88 -11 l83 3 30 63 29 62 157 0 157 0 22 -60 c26 -69 33
-73 130 -68 57 3 65 6 68 24 2 16 -180 454 -269 647 -12 27 -14 27 -104 27
l-92 0 -28 -62z m164 -231 c23 -57 41 -107 41 -110 0 -4 -40 -7 -90 -7 -49 0
-90 3 -90 6 0 15 85 214 91 214 4 0 25 -47 48 -103z"/>
<path d="M10556 2454 c-3 -9 -6 -161 -6 -338 0 -237 3 -325 12 -334 16 -16
140 -16 156 0 8 8 12 54 12 140 l0 128 135 0 135 0 0 -135 c0 -155 -5 -149
105 -143 l60 3 0 345 0 345 -80 0 -80 0 -3 -122 -3 -123 -134 0 -135 0 0 109
c0 60 -3 116 -6 125 -9 23 -159 23 -168 0z"/>
<path d="M11280 2451 c-5 -11 -10 -42 -10 -70 0 -74 11 -81 136 -81 l104 0 2
-262 3 -263 60 -3 c32 -2 69 -1 82 3 l23 5 0 260 0 260 98 0 c128 0 134 4 130
95 l-3 70 -307 3 c-296 2 -308 2 -318 -17z"/>
<path d="M12817 2463 c-4 -3 -7 -158 -7 -344 0 -298 2 -338 16 -343 34 -13
410 -6 458 8 98 30 155 103 156 199 0 63 -20 108 -63 143 l-36 28 24 28 c53
63 41 155 -29 224 -24 25 -58 46 -81 53 -43 12 -427 16 -438 4z m384 -163 c12
-7 19 -21 19 -40 0 -42 -23 -50 -139 -50 l-101 0 0 50 0 50 101 0 c55 0 109
-5 120 -10z m33 -260 c34 -12 44 -54 21 -80 -16 -18 -32 -20 -147 -20 l-128 0
0 48 c0 27 3 52 7 55 10 11 219 8 247 -3z"/>
</g>
</svg>
