<?xml version="1.0" standalone="no"?>
<!DOCTYPE svg PUBLIC "-//W3C//DTD SVG 20010904//EN"
 "http://www.w3.org/TR/2001/REC-SVG-20010904/DTD/svg10.dtd">
<svg version="1.0" xmlns="http://www.w3.org/2000/svg"
 width="326.000000pt" height="158.000000pt" viewBox="0 0 326.000000 158.000000"
 preserveAspectRatio="xMidYMid meet">

<g transform="translate(0.000000,158.000000) scale(0.100000,-0.100000)"
fill="#000000" stroke="none">
<path d="M1115 968 c-11 -6 -27 -14 -35 -18 -9 -4 -15 -21 -15 -41 0 -29 4
-34 33 -43 17 -5 32 -13 32 -17 0 -5 19 2 43 14 34 18 42 27 42 51 0 16 -7 32
-15 36 -8 4 -25 12 -37 18 -26 14 -22 14 -48 0z m85 -52 c0 -18 -27 -39 -40
-31 -11 7 -14 48 -4 58 10 9 44 -12 44 -27z m-70 0 c0 -32 -18 -43 -37 -23
-20 20 -10 47 17 47 15 0 20 -7 20 -24z"/>
<path d="M1279 959 c-28 -28 -22 -76 13 -102 29 -22 65 -18 92 9 22 21 20 77
-2 97 -26 23 -78 21 -103 -4z m95 -31 c8 -22 6 -32 -9 -48 -25 -27 -51 -25
-71 5 -14 21 -15 31 -5 51 9 21 17 25 43 22 25 -2 35 -9 42 -30z"/>
<path d="M1442 913 c3 -66 20 -90 26 -38 3 21 8 25 38 25 30 0 34 -3 34 -25 0
-14 5 -25 10 -25 6 0 10 28 10 65 0 64 -16 91 -22 38 -3 -24 -8 -28 -33 -28
-25 0 -30 4 -33 28 -2 16 -9 27 -18 27 -12 0 -14 -13 -12 -67z"/>
<path d="M1637 973 c-4 -3 -7 -25 -7 -48 0 -26 -6 -48 -15 -55 -8 -7 -15 -21
-15 -31 0 -11 7 -19 15 -19 8 0 15 5 15 10 0 18 92 12 106 -7 12 -17 13 -17
20 1 4 10 2 27 -4 37 -7 10 -12 41 -12 69 l0 50 -48 0 c-27 0 -52 -3 -55 -7z
m71 -60 c-3 -44 -5 -48 -28 -48 -17 0 -25 5 -24 18 4 78 3 77 30 77 24 0 25
-2 22 -47z"/>
<path d="M1060 655 c0 -51 3 -65 15 -65 12 0 15 13 15 55 l0 55 35 0 35 0 0
-55 c0 -30 5 -55 10 -55 6 0 10 28 10 65 l0 65 -60 0 -60 0 0 -65z"/>
<path d="M1230 655 c0 -63 12 -85 25 -45 4 14 15 20 34 20 32 0 51 16 51 45 0
32 -20 45 -67 45 l-43 0 0 -65z m87 29 c6 -17 -20 -44 -43 -44 -15 0 -28 35
-19 50 10 16 55 12 62 -6z"/>
<path d="M1380 655 l0 -65 56 0 c34 0 53 4 49 10 -3 6 -22 10 -41 10 -27 0
-34 4 -34 19 0 15 8 21 33 24 l32 4 -32 1 c-26 2 -33 6 -33 22 0 16 7 20 35
20 19 0 35 5 35 10 0 6 -22 10 -50 10 l-50 0 0 -65z"/>
<path d="M1534 709 c-4 -7 3 -10 17 -9 40 4 49 1 49 -16 0 -9 -10 -19 -22 -22
-23 -6 -23 -6 2 -12 16 -4 25 -13 25 -25 0 -17 -6 -20 -45 -17 -36 2 -42 0
-32 -10 18 -18 79 -15 99 5 14 14 15 21 6 36 -6 10 -9 29 -6 41 4 13 0 25 -8
31 -20 12 -76 11 -85 -2z"/>
<path d="M1680 655 c0 -79 14 -84 56 -23 l29 42 3 -42 c2 -29 8 -42 18 -42 11
0 14 15 14 65 0 80 -13 84 -61 18 l-34 -48 -3 48 c-5 71 -22 57 -22 -18z"/>
<path d="M1870 682 c0 -21 -7 -47 -15 -58 -16 -21 -20 -64 -6 -64 5 0 11 7 15
15 4 10 20 15 51 15 31 0 47 -5 51 -15 9 -24 24 -17 24 10 0 14 -4 25 -10 25
-5 0 -10 25 -10 55 l0 55 -50 0 -50 0 0 -38z m80 -27 c0 -44 -1 -45 -33 -45
-32 0 -33 2 -30 33 7 51 11 57 38 57 23 0 25 -4 25 -45z"/>
<path d="M2030 655 l0 -65 50 0 c58 0 68 17 13 22 -50 4 -52 31 -3 39 29 5 30
7 9 8 -27 1 -54 23 -42 34 3 4 21 7 40 7 18 0 33 5 33 10 0 6 -22 10 -50 10
l-50 0 0 -65z"/>
<path d="M2180 655 c0 -64 16 -91 22 -37 3 23 8 27 33 27 25 0 30 -4 33 -27 2
-16 9 -28 18 -28 11 0 14 15 14 65 0 50 -3 65 -14 65 -9 0 -16 -12 -18 -27 -3
-24 -8 -28 -33 -28 -25 0 -30 4 -33 28 -6 53 -22 26 -22 -38z"/>
<path d="M2340 711 c0 -5 10 -11 23 -13 19 -3 22 -10 25 -55 4 -70 22 -68 22
2 0 52 1 55 25 55 14 0 25 5 25 10 0 6 -27 10 -60 10 -33 0 -60 -4 -60 -9z"/>
<path d="M2507 702 c-23 -26 -21 -75 3 -97 23 -21 75 -24 93 -5 10 10 7 11
-17 6 -36 -9 -76 16 -76 47 0 33 19 47 63 47 23 0 36 4 32 10 -11 17 -80 12
-98 -8z"/>
<path d="M2660 655 c0 -37 4 -65 10 -65 6 0 10 14 10 30 0 17 4 30 9 30 5 0
19 -13 31 -30 12 -16 28 -30 36 -30 12 0 11 6 -5 29 -26 37 -26 49 1 78 17 19
19 23 5 23 -8 0 -24 -11 -35 -25 -11 -14 -25 -25 -31 -25 -6 0 -11 11 -11 25
0 14 -4 25 -10 25 -6 0 -10 -28 -10 -65z"/>
<path d="M2820 655 c0 -79 14 -84 56 -23 l29 42 3 -42 c2 -29 8 -42 18 -42 11
0 14 15 14 65 0 78 -14 85 -54 25 -14 -22 -31 -40 -36 -40 -6 0 -10 18 -10 40
0 22 -4 40 -10 40 -6 0 -10 -28 -10 -65z"/>
<path d="M3006 691 c16 -26 16 -33 4 -58 -8 -15 -16 -31 -18 -35 -2 -5 3 -8
11 -8 7 0 19 12 26 28 l13 27 22 -27 c30 -38 54 -37 27 1 -12 16 -21 32 -21
36 0 4 9 20 21 36 16 23 17 29 6 29 -9 0 -24 -12 -34 -26 l-19 -25 -14 25 c-7
14 -20 26 -27 26 -11 0 -11 -6 3 -29z"/>
<path d="M1880 463 c-50 -18 -68 -84 -32 -116 25 -23 85 -22 105 1 22 24 22
75 0 94 -22 19 -53 28 -73 21z m50 -33 c11 -11 20 -27 20 -35 0 -16 -34 -55
-48 -55 -4 0 -18 7 -30 16 -28 20 -28 58 0 78 29 20 34 20 58 -4z"/>
<path d="M1060 395 c0 -51 3 -65 15 -65 12 0 15 13 15 55 l0 55 35 0 c19 0 35
5 35 10 0 6 -22 10 -50 10 l-50 0 0 -65z"/>
<path d="M1200 395 c0 -51 3 -65 15 -65 8 0 15 9 15 20 0 15 7 20 29 20 49 0
74 57 37 82 -6 4 -30 8 -53 8 l-43 0 0 -65z m85 20 c0 -14 -8 -21 -27 -23 -24
-3 -28 0 -28 23 0 23 4 26 28 23 19 -2 27 -9 27 -23z"/>
<path d="M1381 438 c-5 -13 -16 -40 -25 -62 -19 -47 -19 -46 -2 -46 8 0 16 7
20 15 3 9 18 15 35 15 16 0 31 -6 35 -15 3 -8 12 -15 20 -15 11 0 8 15 -13 65
-28 69 -54 85 -70 43z m49 -50 c0 -4 -9 -8 -20 -8 -20 0 -28 29 -13 44 7 7 33
-21 33 -36z"/>
<path d="M1520 395 c0 -64 16 -91 22 -37 2 22 8 28 36 30 30 3 32 1 32 -27 0
-21 5 -31 15 -31 12 0 15 14 15 65 0 51 -3 65 -15 65 -9 0 -15 -9 -15 -25 0
-22 -4 -25 -35 -25 -31 0 -35 3 -35 25 0 14 -4 25 -10 25 -6 0 -10 -28 -10
-65z"/>
<path d="M1675 450 c3 -5 15 -10 26 -10 16 0 19 -7 19 -55 0 -42 3 -55 15 -55
12 0 15 13 15 55 0 52 1 55 25 55 14 0 25 5 25 10 0 6 -29 10 -66 10 -41 0
-63 -4 -59 -10z"/>
<path d="M2010 395 l0 -65 50 0 c40 0 51 4 60 21 9 15 8 24 0 35 -7 7 -9 21
-6 30 10 27 -13 44 -60 44 l-44 0 0 -65z m71 44 c25 -13 16 -29 -17 -29 -23 0
-32 18 -17 33 8 9 11 9 34 -4z m17 -71 c3 -14 -3 -18 -27 -18 -25 0 -31 4 -31
21 0 16 5 20 27 17 17 -2 29 -10 31 -20z"/>
</g>
</svg>
