<?xml version="1.0" standalone="no"?>
<!DOCTYPE svg PUBLIC "-//W3C//DTD SVG 20010904//EN"
 "http://www.w3.org/TR/2001/REC-SVG-20010904/DTD/svg10.dtd">
<svg version="1.0" xmlns="http://www.w3.org/2000/svg"
 width="173pt" height="84pt" viewBox="0 0 692 336"
 preserveAspectRatio="xMidYMid meet">
<g transform="translate(0,336) scale(0.1,-0.1)"
fill="#000000" stroke="none">
<path fill="#a1252d" d="M1441 3098 c-4 -13 -74 -216 -155 -453 -81 -236 -204 -596 -274 -800
l-127 -370 -70 1 c-225 1 -375 125 -375 310 0 115 44 195 130 239 96 49 203
26 276 -58 l36 -42 -7 45 c-15 94 -88 190 -169 224 -60 25 -137 29 -204 12
-89 -22 -138 -51 -202 -115 -141 -141 -177 -358 -89 -538 77 -158 287 -280
517 -300 43 -3 72 -10 72 -17 0 -6 -43 -135 -95 -286 -52 -151 -95 -275 -95
-276 0 -1 -21 -7 -47 -14 -27 -6 -81 -25 -121 -42 l-72 -30 0 -54 0 -54 365 0
365 0 0 54 0 54 -52 22 c-29 12 -90 32 -137 43 -48 11 -87 21 -89 22 -2 2 67
221 152 480 l33 100 83 7 c167 14 486 102 639 177 36 17 65 30 67 28 11 -12
264 -799 259 -807 -3 -5 -12 -10 -20 -10 -8 0 -52 -14 -99 -31 l-86 -31 0 -54
0 -54 365 0 365 0 0 54 0 53 -98 39 -99 39 -31 90 c-102 299 -254 741 -276
804 -14 41 -26 78 -26 82 0 4 52 55 115 114 112 105 116 107 135 90 14 -13 29
-16 55 -12 19 3 35 4 35 3 0 -2 -9 -29 -20 -61 -11 -32 -19 -60 -17 -61 2 -2
26 13 53 34 28 21 82 61 121 89 71 52 72 53 62 85 -5 18 -5 35 -1 38 4 3 42
32 85 64 106 80 201 186 243 271 46 94 48 119 10 123 -93 11 -301 -72 -435
-174 l-75 -56 -33 16 -33 16 -153 -77 c-83 -42 -147 -77 -142 -79 6 -1 49 -8
97 -14 l87 -12 -16 -32 c-14 -30 -14 -36 1 -64 l16 -31 -106 -73 c-58 -40
-110 -73 -116 -73 -6 0 -18 18 -25 40 -8 22 -112 326 -232 675 l-217 635 -47
3 c-41 3 -48 0 -56 -20z m163 -1028 c81 -245 146 -450 146 -455 0 -13 -158
-76 -260 -104 -131 -36 -410 -66 -410 -45 0 13 275 845 318 963 35 95 47 120
53 105 4 -10 73 -219 153 -464z m1106 170 c40 -40 11 -110 -45 -110 -32 0 -65
33 -65 65 0 32 33 65 65 65 14 0 34 -9 45 -20z"/>
<path d="M3284 2268 c-15 -40 -37 -99 -50 -130 -22 -56 -22 -58 -3 -58 12 0
24 12 34 36 14 35 15 35 72 32 55 -3 58 -4 67 -35 6 -23 15 -33 29 -33 11 0
17 5 14 13 -93 250 -91 247 -113 247 -18 0 -27 -13 -50 -72z m74 -28 l21 -60
-45 0 c-24 0 -44 2 -44 5 0 8 41 115 45 115 2 0 12 -27 23 -60z"/>
<path d="M3510 2251 c-25 -24 -30 -38 -30 -76 0 -65 31 -95 100 -95 38 0 50 4
50 15 0 13 -7 15 -34 9 -66 -12 -110 67 -70 125 14 19 24 22 60 19 36 -2 44 0
42 12 -2 10 -17 16 -46 18 -36 3 -47 -1 -72 -27z"/>
<path d="M3670 2265 c0 -10 11 -15 35 -15 l35 0 0 -85 c0 -79 1 -85 21 -85 19
0 20 5 17 85 l-3 85 38 0 c26 0 37 4 37 15 0 12 -17 15 -90 15 -73 0 -90 -3
-90 -15z"/>
<path d="M3900 2145 c0 -113 2 -135 15 -135 11 0 15 12 15 47 0 37 3 44 12 35
7 -7 29 -12 49 -12 52 0 79 35 79 102 0 39 -5 54 -25 73 -28 29 -70 32 -97 8
-17 -15 -18 -15 -18 0 0 10 -7 17 -15 17 -13 0 -15 -22 -15 -135z m122 88 c38
-35 11 -133 -37 -133 -26 0 -55 38 -55 73 0 65 50 98 92 60z"/>
<path d="M4147 2260 c-32 -25 -43 -76 -27 -124 14 -43 35 -56 89 -56 54 0 81
34 81 102 0 39 -5 54 -25 73 -30 31 -82 33 -118 5z m97 -32 c19 -27 20 -58 4
-92 -15 -33 -43 -42 -73 -22 -20 13 -25 25 -25 57 0 22 5 49 10 60 15 27 64
25 84 -3z"/>
<path d="M4349 2238 c0 -23 -1 -69 -2 -100 -2 -50 0 -58 15 -58 15 0 18 9 18
45 l0 45 50 0 50 0 0 -45 c0 -38 3 -45 19 -45 18 0 19 8 18 98 -2 79 -5 97
-17 97 -10 0 -16 -12 -18 -37 l-3 -38 -49 0 -49 0 -3 37 c-4 54 -28 55 -29 1z"/>
<path d="M4600 2262 c-18 -14 -24 -32 -28 -74 -4 -47 -1 -58 19 -82 27 -30 78
-38 116 -18 27 15 47 74 39 117 -13 65 -96 98 -146 57z m100 -31 c5 -11 10
-38 10 -60 0 -32 -5 -44 -25 -57 -30 -20 -58 -11 -73 22 -16 34 -15 65 4 92
20 28 69 30 84 3z"/>
<path d="M4800 2180 c0 -82 3 -100 15 -100 12 0 15 15 15 76 0 41 3 73 8 71 4
-3 16 -28 27 -56 26 -68 48 -68 79 2 l24 52 1 -72 c1 -66 3 -73 21 -73 20 0
21 5 18 98 -3 95 -4 97 -27 97 -19 0 -28 -11 -49 -63 -14 -34 -29 -59 -32 -55
-4 5 -17 34 -30 66 -18 47 -26 57 -46 57 -24 0 -24 -1 -24 -100z"/>
<path d="M5077 2273 c-4 -3 -7 -48 -7 -100 0 -90 1 -93 23 -93 17 0 32 17 67
76 l45 77 3 -77 c2 -59 6 -76 17 -76 12 0 15 19 15 100 0 93 -1 100 -20 100
-13 0 -32 -21 -61 -70 -23 -39 -45 -73 -50 -75 -4 -3 -8 16 -7 42 2 99 -4 118
-25 96z"/>
<path d="M5300 2240 c0 -53 27 -80 80 -80 l40 0 0 -40 c0 -31 4 -40 18 -40 15
0 17 11 17 98 -1 78 -4 97 -16 97 -9 0 -15 -13 -17 -42 -3 -42 -4 -43 -37 -43
-38 0 -55 20 -55 64 0 16 -6 26 -15 26 -11 0 -15 -11 -15 -40z"/>
<path d="M5539 2251 c-23 -24 -29 -38 -29 -74 0 -28 7 -53 18 -66 32 -40 143
-46 150 -8 3 15 0 16 -23 7 -41 -16 -64 -12 -90 15 -39 38 -32 45 50 45 69 0
75 2 75 20 0 29 -26 76 -45 84 -38 14 -77 6 -106 -23z m105 -17 c27 -27 18
-34 -45 -34 -61 0 -63 2 -36 38 13 17 62 15 81 -4z"/>
<path d="M5774 2269 c-43 -22 -59 -113 -29 -157 27 -37 135 -50 135 -15 0 10
-8 12 -34 7 -66 -12 -110 67 -70 125 14 19 24 22 60 19 36 -2 44 0 42 12 -4
18 -73 24 -104 9z"/>
<path d="M5940 2180 c0 -82 3 -100 15 -100 10 0 15 10 15 33 0 20 7 41 18 50
16 15 20 13 51 -33 21 -31 42 -50 53 -50 16 0 13 9 -23 60 l-42 61 38 39 c59
60 14 53 -47 -7 l-48 -47 0 47 c0 35 -4 47 -15 47 -12 0 -15 -18 -15 -100z"/>
<path d="M6177 2260 c-48 -38 -44 -145 6 -172 37 -19 89 -12 115 17 32 38 31
117 -3 150 -30 31 -82 33 -118 5z m97 -32 c45 -64 -20 -162 -74 -113 -22 20
-27 83 -10 116 15 27 64 25 84 -3z"/>
<path d="M6395 2256 c-47 -47 -42 -128 10 -162 41 -27 135 -19 135 10 0 12 -7
13 -32 5 -48 -13 -66 -11 -88 11 -38 38 -27 50 48 50 38 0 71 3 74 6 11 10
-11 69 -33 87 -31 25 -85 22 -114 -7z m103 -18 c26 -26 13 -38 -43 -38 -59 0
-60 1 -45 31 12 22 68 27 88 7z"/>
<path d="M3943 1929 c-17 -5 -41 -22 -53 -37 -19 -24 -21 -37 -18 -110 3 -74
6 -86 27 -103 23 -19 74 -25 106 -13 8 4 22 19 30 35 38 72 -3 159 -74 159
-20 0 -42 -5 -49 -12 -19 -19 -14 7 6 32 12 15 33 24 65 27 31 4 47 10 47 19
0 16 -38 17 -87 3z m57 -114 c20 -24 17 -90 -4 -114 -24 -27 -48 -27 -72 0
-22 24 -25 89 -5 113 17 20 65 21 81 1z"/>
<path d="M3267 1840 c-46 -36 -48 -119 -5 -160 18 -16 33 -20 72 -18 31 2 51
8 54 17 3 10 -4 12 -35 7 -55 -10 -88 17 -88 72 0 58 19 75 77 70 34 -4 48 -1
48 7 0 31 -86 34 -123 5z"/>
<path d="M3472 1853 c-21 -8 -42 -59 -42 -101 0 -58 30 -92 81 -92 54 0 75 13
89 56 16 48 5 99 -27 124 -24 19 -71 25 -101 13z m88 -42 c5 -11 10 -38 10
-60 0 -32 -5 -44 -25 -57 -44 -29 -85 5 -85 69 0 57 75 93 100 48z"/>
<path d="M3675 1835 c-34 -33 -35 -112 -2 -150 25 -29 77 -36 115 -16 27 14
46 73 38 116 -14 70 -102 100 -151 50z m105 -24 c5 -11 10 -38 10 -60 0 -32
-5 -44 -25 -57 -30 -20 -58 -11 -73 22 -16 34 -15 65 4 92 20 28 69 30 84 3z"/>
<path d="M4107 1853 c-4 -3 -7 -48 -7 -100 l0 -93 135 0 135 0 0 -25 c0 -14 5
-25 10 -25 6 0 10 18 10 40 0 22 -4 40 -10 40 -5 0 -10 37 -12 83 -2 65 -6 82
-18 82 -12 0 -16 -17 -18 -82 l-3 -83 -39 0 -40 0 0 85 c0 69 -3 85 -15 85
-12 0 -15 -16 -15 -85 l0 -85 -42 0 -43 0 3 61 c5 85 -7 126 -31 102z"/>
<path d="M4467 1840 c-46 -36 -48 -119 -5 -160 33 -31 154 -27 142 4 -4 10
-14 11 -43 3 -45 -12 -84 6 -94 42 -5 20 -1 21 69 21 l74 0 0 30 c0 68 -87
104 -143 60z m103 -29 c15 -30 14 -31 -45 -31 -38 0 -55 4 -55 13 0 39 81 53
100 18z"/>
<path d="M4679 1831 c-21 -22 -29 -39 -29 -66 0 -47 24 -93 54 -101 36 -9 99
0 104 15 3 10 -4 12 -35 7 -56 -10 -88 17 -87 73 2 59 18 74 76 69 34 -4 48
-1 48 7 0 17 -23 25 -67 25 -25 0 -43 -8 -64 -29z"/>
<path d="M4840 1845 c0 -11 11 -15 40 -15 l40 0 0 -85 c0 -69 3 -85 15 -85 12
0 15 16 15 85 l0 85 40 0 c29 0 40 4 40 15 0 12 -17 15 -95 15 -78 0 -95 -3
-95 -15z"/>
<path d="M5070 1760 l0 -100 60 0 c47 0 64 4 80 20 25 25 25 45 1 69 -17 17
-18 21 -5 32 21 18 13 51 -16 66 -14 7 -46 13 -72 13 l-48 0 0 -100z m107 59
c21 -21 3 -39 -38 -39 -35 0 -39 3 -39 25 0 22 4 25 33 25 18 0 38 -5 44 -11z
m8 -99 c0 -22 -5 -25 -42 -28 -42 -3 -43 -2 -43 28 0 30 1 31 43 28 37 -3 42
-6 42 -28z"/>
<path d="M5298 1830 c-28 -28 -30 -35 -26 -82 6 -62 32 -88 88 -88 55 0 82 26
87 86 5 43 2 54 -22 82 -37 44 -84 44 -127 2z m103 -16 c33 -40 4 -134 -41
-134 -28 0 -55 38 -55 80 0 46 19 70 55 70 15 0 34 -7 41 -16z"/>
<path d="M3249 1400 c-1 -55 -1 -112 -2 -127 -1 -28 0 -28 64 -31 82 -4 119
19 119 74 0 52 -28 74 -95 74 l-55 0 0 40 0 40 65 0 c51 0 65 3 65 15 0 12
-16 15 -80 15 l-80 0 -1 -100z m115 -40 c20 -7 26 -17 26 -38 0 -39 -17 -52
-67 -52 l-43 0 0 50 c0 49 1 50 29 50 16 0 41 -4 55 -10z"/>
<path d="M3590 1491 c0 -5 -16 -15 -35 -21 -66 -22 -96 -96 -59 -149 9 -12 36
-31 61 -42 24 -10 41 -23 38 -29 -3 -5 3 -10 14 -10 12 0 21 6 21 13 0 8 18
19 40 26 100 30 100 164 0 191 -22 6 -40 15 -40 20 0 6 -9 10 -20 10 -11 0
-20 -4 -20 -9z m2 -114 c0 -38 -2 -70 -5 -73 -7 -7 -49 15 -59 30 -4 6 -8 25
-8 41 0 35 7 47 35 63 32 18 37 10 37 -61z m101 41 c33 -38 12 -98 -40 -113
-22 -6 -23 -4 -23 70 0 74 1 76 23 70 12 -4 30 -16 40 -27z"/>
<path d="M3783 1483 c2 -10 20 -54 40 -99 37 -85 36 -114 -3 -114 -11 0 -20
-7 -20 -15 0 -18 40 -20 63 -2 16 12 27 36 88 180 25 61 26 67 10 67 -13 0
-28 -22 -51 -76 l-33 -75 -31 75 c-23 57 -36 76 -50 76 -13 0 -17 -5 -13 -17z"/>
<path d="M4870 1370 l0 -130 24 0 c21 0 33 15 78 101 l53 100 3 -100 c2 -93 4
-101 22 -101 19 0 20 7 20 131 l0 130 -27 -3 c-22 -3 -34 -18 -77 -100 -28
-54 -54 -98 -59 -98 -4 0 -7 19 -6 43 5 105 -1 157 -16 157 -13 0 -15 -21 -15
-130z"/>
<path d="M5370 1370 c0 -109 2 -130 15 -130 11 0 15 11 15 43 0 33 6 49 23 65
13 12 26 22 28 22 3 0 25 -29 48 -65 28 -42 50 -65 62 -65 17 0 12 12 -31 75
-27 41 -50 78 -50 82 0 4 21 29 47 55 46 47 46 48 21 48 -19 0 -40 -16 -81
-60 -29 -33 -57 -60 -60 -60 -4 0 -7 27 -7 60 0 47 -3 60 -15 60 -13 0 -15
-21 -15 -130z"/>
<path d="M4137 1433 c-4 -3 -7 -48 -7 -100 0 -90 1 -93 23 -93 17 0 32 17 67
76 l45 75 3 -75 c2 -59 6 -76 17 -76 12 0 15 19 15 100 0 93 -1 100 -20 100
-13 0 -32 -21 -61 -70 -23 -39 -45 -73 -50 -76 -5 -3 -9 29 -9 70 0 70 -6 87
-23 69z"/>
<path d="M4370 1340 c0 -82 3 -100 15 -100 12 0 15 16 16 78 l1 77 25 -57 c17
-38 32 -58 43 -58 12 0 26 20 43 58 l26 57 0 -77 c1 -62 4 -78 16 -78 12 0 15
18 15 101 0 98 -1 100 -22 97 -17 -2 -29 -19 -49 -67 l-27 -65 -30 67 c-24 51
-36 67 -51 67 -20 0 -21 -6 -21 -100z"/>
<path d="M5643 1433 c-7 -2 -13 -10 -13 -16 0 -8 16 -11 49 -9 41 3 51 0 60
-16 14 -26 6 -32 -46 -32 -72 0 -105 -51 -65 -100 21 -26 73 -30 99 -8 13 10
17 10 20 1 3 -7 12 -13 20 -13 13 0 15 14 11 81 -3 70 -6 83 -27 100 -22 18
-79 24 -108 12z m100 -115 c-8 -31 -33 -58 -54 -58 -18 0 -49 25 -49 40 0 20
34 40 70 40 35 0 38 -2 33 -22z"/>
<path d="M5847 1434 c-4 -4 -7 -49 -7 -101 0 -87 1 -93 21 -93 16 0 20 6 19
28 -4 61 -3 62 50 62 l50 0 0 -45 c0 -33 4 -45 15 -45 12 0 15 18 15 100 0 82
-3 100 -15 100 -11 0 -15 -11 -15 -40 l0 -40 -50 0 c-41 0 -50 3 -51 18 -3 48
-5 56 -15 59 -5 2 -13 0 -17 -3z"/>
<path d="M6060 1425 c0 -10 11 -15 35 -15 l35 0 0 -85 c0 -78 2 -85 20 -85 18
0 20 7 20 85 l0 85 35 0 c24 0 35 5 35 15 0 12 -17 15 -90 15 -73 0 -90 -3
-90 -15z"/>
<path d="M6303 1433 c-7 -2 -13 -10 -13 -18 0 -9 12 -11 45 -7 46 5 75 -8 75
-34 0 -10 -14 -14 -48 -14 -35 0 -54 -5 -65 -18 -20 -22 -22 -73 -5 -90 15
-15 72 -16 99 -2 13 7 19 7 19 0 0 -5 7 -10 15 -10 12 0 15 16 15 80 0 69 -3
82 -22 100 -21 19 -83 27 -115 13z m107 -113 c0 -43 -60 -76 -88 -48 -32 32
-3 67 56 68 25 0 32 -4 32 -20z"/>
<path d="M4640 1260 c0 -13 7 -20 20 -20 13 0 20 7 20 20 0 13 -7 20 -20 20
-13 0 -20 -7 -20 -20z"/>
<path d="M5140 1260 c0 -13 7 -20 20 -20 13 0 20 7 20 20 0 13 -7 20 -20 20
-13 0 -20 -7 -20 -20z"/>
</g>
</svg>
